{
  "accessors": [
    {
      "bufferView": 2,
      "componentType": 5126,
      "count": 16457,
      "max": [
        2.3600170612335205,
        0.27115601301193237,
        3.8193290233612061
      ],
      "min": [
        0.13974200189113617,
        0.22884400188922882,
        -0.078905999660491943
      ],
      "type": "VEC3"
    },
    {
      "bufferView": 2,
      "byteOffset": 197484,
      "componentType": 5126,
      "count": 16457,
      "max": [
        0,
        1,
        0
      ],
      "min": [
        0,
        -1,
        0
      ],
      "type": "VEC3"
    },
    {
      "bufferView": 1,
      "componentType": 5126,
      "count": 16457,
      "max": [
        1,
        1
      ],
      "min": [
        0,
        0
      ],
      "type": "VEC2"
    },
    {
      "bufferView": 0,
      "componentType": 5125,
      "count": 35433,
      "max": [
        16456
      ],
      "min": [
        0
      ],
      "type": "SCALAR"
    },
    {
      "bufferView": 2,
      "byteOffset": 394968,
      "componentType": 5126,
      "count": 32816,
      "max": [
        2.3600170612335205,
        0.27115601301193237,
        3.8300199508666992
      ],
      "min": [
        0.13974200189113617,
        0.22884400188922882,
        -0.078905999660491943
      ],
      "type": "VEC3"
    },
    {
      "bufferView": 2,
      "byteOffset": 788760,
      "componentType": 5126,
      "count": 32816,
      "max": [
        1,
        0.016798000782728195,
        1
      ],
      "min": [
        -1,
        -0.014225996099412441,
        -1
      ],
      "type": "VEC3"
    },
    {
      "bufferView": 1,
      "byteOffset": 131656,
      "componentType": 5126,
      "count": 32816,
      "max": [
        1,
        1
      ],
      "min": [
        0,
        0
      ],
      "type": "VEC2"
    },
    {
      "bufferView": 0,
      "byteOffset": 141732,
      "componentType": 5125,
      "count": 45705,
      "max": [
        32815
      ],
      "min": [
        0
      ],
      "type": "SCALAR"
    }
  ],
  "asset": {
    "extras": {
      "author": "ENEA LE FONS (https://sketchfab.com/enealefons)",
      "license": "CC-BY-4.0 (http://creativecommons.org/licenses/by/4.0/)",
      "source": "https://sketchfab.com/3d-models/uxr-ascii-palm-tree-1825373b79d9491d9a03dd8374367670",
      "title": "UXR ASCII Palm Tree"
    },
    "generator": "Sketchfab-9.76.0",
    "version": "2.0"
  },
  "bufferViews": [
    {
      "buffer": 0,
      "byteLength": 324552,
      "byteOffset": 0,
      "name": "floatBufferViews",
      "target": 34963
    },
    {
      "buffer": 0,
      "byteLength": 394184,
      "byteOffset": 324552,
      "byteStride": 8,
      "name": "floatBufferViews",
      "target": 34962
    },
    {
      "buffer": 0,
      "byteLength": 1182552,
      "byteOffset": 718736,
      "byteStride": 12,
      "name": "floatBufferViews",
      "target": 34962
    }
  ],
  "buffers": [
    {
      "byteLength": 1901288,
      "uri": "scene.bin"
    }
  ],
  "images": [
    {
      "uri": "textures/scene_material_baseColor.jpeg"
    }
  ],
  "materials": [
    {
      "doubleSided": true,
      "emissiveFactor": [
        0,
        1,
        0.17154689003695642
      ],
      "name": "Polygon_XSIPOLYCLS.material1",
      "pbrMetallicRoughness": {
        "baseColorFactor": [
          0.0240318589597871,
          1,
          0,
          1
        ],
        "metallicFactor": 0,
        "roughnessFactor": 0.59999999999999998
      }
    },
    {
      "doubleSided": true,
      "emissiveFactor": [
        1,
        1,
        1
      ],
      "emissiveTexture": {
        "index": 0,
        "texCoord": 0
      },
      "name": "scene_material",
      "pbrMetallicRoughness": {
        "baseColorFactor": [
          1,
          1,
          1,
          1
        ],
        "baseColorTexture": {
          "index": 0,
          "texCoord": 0
        },
        "metallicFactor": 0,
        "roughnessFactor": 0.59999999999999998
      }
    }
  ],
  "meshes": [
    {
      "primitives": [
        {
          "attributes": {
            "NORMAL": 1,
            "POSITION": 0,
            "TEXCOORD_0": 2
          },
          "indices": 3,
          "material": 0,
          "mode": 4
        }
      ]
    },
    {
      "primitives": [
        {
          "attributes": {
            "NORMAL": 5,
            "POSITION": 4,
            "TEXCOORD_0": 6
          },
          "indices": 7,
          "material": 1,
          "mode": 4
        }
      ]
    }
  ],
  "nodes": [
    {
      "children": [
        1
      ],
      "name": "RootNode (gltf orientation matrix)",
      "rotation": [
        -0.70710678118654746,
        -0,
        -0,
        0.70710678118654757
      ]
    },
    {
      "children": [
        2
      ],
      "name": "RootNode (model correction matrix)"
    },
    {
      "children": [
        3,
        4
      ],
      "name": "UXRasciiPALMTREE02.obj.cleaner.materialmerger.gles"
    },
    {
      "mesh": 0,
      "name": ""
    },
    {
      "mesh": 1,
      "name": ""
    }
  ],
  "samplers": [
    {
      "magFilter": 9729,
      "minFilter": 9987,
      "wrapS": 10497,
      "wrapT": 10497
    }
  ],
  "scene": 0,
  "scenes": [
    {
      "name": "OSG_Scene",
      "nodes": [
        0
      ]
    }
  ],
  "textures": [
    {
      "sampler": 0,
      "source": 0
    }
  ]
}

